<svg width="77" height="15" viewBox="0 0 77 15" fill="none" xmlns="http://www.w3.org/2000/svg">
<path d="M67.8351 1.56728C68.1383 0.960705 68.9977 0.985979 69.2757 1.56728L70.9438 4.92871L74.6337 5.45946C75.2909 5.56056 75.5436 6.36932 75.0634 6.84953L72.4096 9.45274L73.0415 13.1175C73.1426 13.7746 72.4349 14.2801 71.8536 13.9768L68.568 12.2329L65.2571 13.9768C64.6758 14.2801 63.9682 13.7746 64.0692 13.1175L64.7011 9.45274L62.0473 6.84953C61.5671 6.36932 61.8199 5.56056 62.477 5.45946L66.1923 4.92871L67.8351 1.56728Z" fill="#FFD651"/>
<path d="M52.7413 1.56728C53.0446 0.960705 53.9039 0.985979 54.1819 1.56728L55.85 4.92871L59.54 5.45946C60.1971 5.56056 60.4499 6.36932 59.9696 6.84953L57.3159 9.45274L57.9477 13.1175C58.0488 13.7746 57.3412 14.2801 56.7599 13.9768L53.4743 12.2329L50.1634 13.9768C49.5821 14.2801 48.8744 13.7746 48.9755 13.1175L49.6073 9.45274L46.9536 6.84953C46.4734 6.36932 46.7261 5.56056 47.3832 5.45946L51.0985 4.92871L52.7413 1.56728Z" fill="#FFD651"/>
<path d="M37.6437 1.56728C37.9469 0.960705 38.8063 0.985979 39.0843 1.56728L40.7523 4.92871L44.4423 5.45946C45.0995 5.56056 45.3522 6.36932 44.872 6.84953L42.2182 9.45274L42.8501 13.1175C42.9512 13.7746 42.2435 14.2801 41.6622 13.9768L38.3766 12.2329L35.0657 13.9768C34.4844 14.2801 33.7767 13.7746 33.8778 13.1175L34.5097 9.45274L31.8559 6.84953C31.3757 6.36932 31.6285 5.56056 32.2856 5.45946L36.0009 4.92871L37.6437 1.56728Z" fill="#FFD651"/>
<path d="M22.546 1.56728C22.8493 0.960705 23.7086 0.985979 23.9866 1.56728L25.6547 4.92871L29.3447 5.45946C30.0018 5.56056 30.2545 6.36932 29.7743 6.84953L27.1206 9.45274L27.7524 13.1175C27.8535 13.7746 27.1458 14.2801 26.5645 13.9768L23.2789 12.2329L19.9681 13.9768C19.3868 14.2801 18.6791 13.7746 18.7802 13.1175L19.412 9.45274L16.7583 6.84953C16.2781 6.36932 16.5308 5.56056 17.1879 5.45946L20.9032 4.92871L22.546 1.56728Z" fill="#FFD651"/>
<path d="M7.44834 1.56728C7.75163 0.960705 8.61094 0.985979 8.88896 1.56728L10.557 4.92871L14.247 5.45946C14.9041 5.56056 15.1569 6.36932 14.6767 6.84953L12.0229 9.45274L12.6548 13.1175C12.7559 13.7746 12.0482 14.2801 11.4669 13.9768L8.18129 12.2329L4.8704 13.9768C4.2891 14.2801 3.58143 13.7746 3.68253 13.1175L4.31438 9.45274L1.66062 6.84953C1.18041 6.36932 1.43315 5.56056 2.09027 5.45946L5.80554 4.92871L7.44834 1.56728Z" fill="#FFD651"/>
</svg>
